<?xml version="1.0" encoding="utf-8"?>
<!-- Generator: Adobe Illustrator 23.0.1, SVG Export Plug-In . SVG Version: 6.00 Build 0)  -->
<svg version="1.1" id="Слой_1" xmlns="http://www.w3.org/2000/svg" xmlns:xlink="http://www.w3.org/1999/xlink" x="0px" y="0px"
	 viewBox="0 0 297.6 213.6" style="enable-background:new 0 0 297.6 213.6;" xml:space="preserve">
<style type="text/css">
	.st0{fill-rule:evenodd;clip-rule:evenodd;fill:#FFEE00;}
	.st1{fill-rule:evenodd;clip-rule:evenodd;fill:#FF0483;}
	.st2{fill-rule:evenodd;clip-rule:evenodd;fill:#6A91CC;}
	.st3{fill-rule:evenodd;clip-rule:evenodd;}
</style>
<g id="Слой_x0020_1">
	<g id="_2832063274896">
		<g>
			<path class="st0" d="M35.2,74.6c-0.9,4-1.4,8.2-1.9,12.3c3.4-11.2,7-21,11.1-23.4c4.6-2.7,8,3.3,10.4,11.1
				c4.3,14.1,5.3,28.6,4.3,43.1c-0.5,6.5-3.1,34.6-12.9,32.8c-4.6-0.8-8.4-10.8-11.9-23.5c0.2,6.7,0.9,12.7,2.2,17.8
				c1.3,5.2,6.1,17.8,12.9,17.4c14.6-0.8,17.6-45.4,17.4-56.3c-0.2-9.7-4.2-54.4-17.3-54.7C42,51.1,36.5,68.5,35.2,74.6z"/>
			<path class="st1" d="M71.1,78.3c-2.4,0.7-4.7,1.6-7.1,2.5l0.2,0.9c9.5-1.8,17.5-2.7,21.1-0.6c4.6,2.7,1,8.6-4.7,14.4
				C70.2,106,57.9,113.9,44.7,120c-5.9,2.7-31.8,13.9-35,4.6c-1.5-4.4,5.5-12.6,14.9-21.8c-5.8,3.4-10.6,6.9-14.5,10.5
				c-3.9,3.7-12.6,13.9-9,19.7c7.8,12.4,48.3-6.5,57.7-11.9c8.4-4.8,45.6-29.9,39.6-41.5C94.9,72.9,77,76.5,71.1,78.3z"/>
			<path class="st2" d="M28.2,78.3c2.1,0.6,3.9,1.3,6,2c0,0.1-0.1,0.9-0.2,1.1C25,79.7,17.4,79,14,81c-4.6,2.7-1,8.6,4.7,14.4
				C29,106,41.3,113.9,54.5,120c5.9,2.7,31.8,13.9,35,4.6c1.3-3.7-3.5-10.1-10.6-17.5l1.2-0.9c3.5,2.3,6.5,4.7,9.1,7.1
				c3.9,3.7,12.6,13.9,9,19.7c-7.8,12.4-48.3-6.5-57.7-11.9c-8.4-4.8-45.6-29.9-39.6-41.5C4.3,72.9,22.2,76.5,28.2,78.3z M35.3,80.8
				c1.6,0.6,3,1.2,4.6,1.8c-1.7-0.3-3.3-0.7-4.9-1L35.3,80.8z"/>
		</g>
		<path class="st3" d="M170.9,75.3c0,14.2,0,28.5,0,42.7h0.6h13.3v-12.5H209V118h13.3c0.4-1.1,0.6-2.3,0.6-3.5v-3.3
			c0-5.4-4-10-9.3-10.8c-0.5-0.1-1-0.1-1.6-0.1c0.5,0,1.1,0,1.6-0.1c5.2-0.8,9.3-5.3,9.3-10.8v-3.3c0-6-4.9-10.9-10.9-10.9
			C198.3,75.3,184.6,75.3,170.9,75.3z M184.8,95.9V85h18.7c3,0,5.5,2.5,5.5,5.5c0,3-2.5,5.5-5.5,5.5H184.8z"/>
		<polygon class="st3" points="263.6,104 262.2,100.9 257.6,90.7 256.1,87.4 250.7,75.3 243.8,75.3 239.6,75.3 229.9,75.3 
			229.9,118 243.8,118 243.8,87.4 257.6,118 263.6,118 269.6,118 283.5,87.4 283.5,118 297.4,118 297.4,75.3 287.6,75.3 283.5,75.3 
			276.5,75.3 271.1,87.4 269.6,90.7 265,100.9 		"/>
		<path d="M198.6,155.9l-2.4-7.4h1.4l1.3,4.3l0.4,1.6c0-0.1,0.2-0.6,0.4-1.5l1.2-4.3h1.4l1.2,4.3l0.4,1.4l0.5-1.4l1.4-4.3h1.3
			l-2.5,7.4h-1.4l-1.2-4.4l-0.3-1.3l-1.6,5.7H198.6z M209.5,155.9l-2.4-7.4h1.4l1.3,4.3l0.4,1.6c0-0.1,0.2-0.6,0.4-1.5l1.2-4.3h1.4
			l1.2,4.3l0.4,1.4l0.5-1.4l1.4-4.3h1.3l-2.5,7.4H214l-1.2-4.4l-0.3-1.3l-1.6,5.7H209.5z M220.4,155.9l-2.4-7.4h1.4l1.3,4.3l0.4,1.6
			c0-0.1,0.2-0.6,0.4-1.5l1.2-4.3h1.4l1.2,4.3l0.4,1.4l0.5-1.4l1.4-4.3h1.3l-2.5,7.4h-1.4l-1.2-4.4l-0.3-1.3l-1.6,5.7H220.4z
			 M229.4,155.9v-1.4h1.5v1.4H229.4z M233.2,155.9v-10.2h1.3v10.2H233.2z M236.6,158.7v-10.2h1.2v1c0.3-0.4,0.6-0.7,1-0.8
			c0.4-0.2,0.8-0.3,1.3-0.3c0.7,0,1.3,0.2,1.8,0.5s0.9,0.8,1.2,1.4c0.3,0.6,0.4,1.2,0.4,1.9c0,0.8-0.1,1.4-0.4,2
			c-0.3,0.6-0.7,1.1-1.3,1.4c-0.5,0.3-1.1,0.5-1.7,0.5c-0.4,0-0.8-0.1-1.2-0.3c-0.4-0.2-0.6-0.4-0.9-0.7v3.6H236.6z M237.8,152.2
			c0,0.9,0.2,1.6,0.6,2.1c0.4,0.5,0.9,0.7,1.5,0.7c0.6,0,1.1-0.2,1.5-0.7c0.4-0.5,0.6-1.2,0.6-2.2c0-0.9-0.2-1.6-0.6-2.1
			c-0.4-0.5-0.9-0.7-1.5-0.7c-0.6,0-1.1,0.2-1.5,0.7C238,150.5,237.8,151.3,237.8,152.2z M244.5,152.8v-1.3h4.1v1.3H244.5z
			 M255.2,153.2l1.3,0.2c-0.1,0.8-0.5,1.5-1.1,2c-0.6,0.5-1.3,0.7-2.2,0.7c-1.1,0-1.9-0.3-2.6-1c-0.7-0.7-1-1.6-1-2.8
			c0-0.8,0.1-1.5,0.4-2.1c0.3-0.6,0.7-1,1.3-1.3c0.6-0.3,1.2-0.4,1.9-0.4c0.8,0,1.5,0.2,2.1,0.6c0.5,0.4,0.9,1,1,1.7l-1.3,0.2
			c-0.1-0.5-0.3-0.9-0.7-1.1c-0.3-0.2-0.7-0.4-1.1-0.4c-0.7,0-1.2,0.2-1.6,0.7c-0.4,0.5-0.6,1.2-0.6,2.1c0,1,0.2,1.7,0.6,2.2
			c0.4,0.4,0.9,0.7,1.6,0.7c0.5,0,1-0.2,1.3-0.5C254.8,154.2,255.1,153.8,255.2,153.2z M257.6,155.9v-7.4h1.2v1.1
			c0.3-0.5,0.6-0.9,0.8-1c0.3-0.2,0.5-0.3,0.9-0.3c0.4,0,0.9,0.1,1.4,0.4l-0.5,1.2c-0.3-0.2-0.6-0.3-1-0.3c-0.3,0-0.5,0.1-0.8,0.2
			c-0.2,0.2-0.4,0.4-0.5,0.7c-0.1,0.4-0.2,0.9-0.2,1.5v3.8H257.6z M262.6,155.9v-7.4h1.2v1c0.2-0.4,0.6-0.7,1-0.9
			c0.4-0.2,0.9-0.3,1.4-0.3c0.6,0,1.1,0.1,1.4,0.3c0.4,0.2,0.6,0.5,0.8,0.9c0.6-0.9,1.4-1.3,2.4-1.3c0.8,0,1.4,0.2,1.8,0.6
			c0.4,0.4,0.6,1,0.6,1.9v5.1h-1.3v-4.6c0-0.5,0-0.9-0.1-1.1c-0.1-0.2-0.2-0.4-0.5-0.5c-0.2-0.1-0.5-0.2-0.8-0.2
			c-0.6,0-1,0.2-1.4,0.5c-0.4,0.3-0.5,0.9-0.5,1.7v4.3h-1.3v-4.8c0-0.6-0.1-1-0.3-1.2c-0.2-0.3-0.6-0.4-1.1-0.4
			c-0.4,0-0.7,0.1-1,0.3c-0.3,0.2-0.5,0.5-0.7,0.8c-0.1,0.4-0.2,0.9-0.2,1.5v3.8H262.6z M275.6,155.9v-1.4h1.5v1.4H275.6z
			 M280.6,155.9h-1.2v-10.2h1.3v3.6c0.6-0.7,1.3-1,2.1-1c0.5,0,0.9,0.1,1.4,0.3c0.4,0.2,0.8,0.4,1.1,0.8c0.3,0.3,0.5,0.7,0.7,1.2
			c0.2,0.5,0.2,1,0.2,1.5c0,1.3-0.3,2.2-1,2.9c-0.7,0.7-1.5,1-2.4,1c-0.9,0-1.6-0.4-2.2-1.1V155.9z M280.6,152.1
			c0,0.9,0.1,1.5,0.4,1.9c0.4,0.6,1,1,1.7,1c0.6,0,1.1-0.2,1.5-0.7c0.4-0.5,0.6-1.2,0.6-2.1c0-1-0.2-1.7-0.6-2.1
			c-0.4-0.5-0.9-0.7-1.5-0.7c-0.6,0-1.1,0.2-1.5,0.7C280.8,150.5,280.6,151.2,280.6,152.1z M287.8,147.1v-1.4h1.3v1.4H287.8z
			 M287.8,155.9v-7.4h1.3v7.4H287.8z M290.4,155.9v-1l5-5.4c-0.6,0-1.1,0-1.5,0h-3.2v-1h6.4v0.8l-4.2,4.7l-0.8,0.9
			c0.6,0,1.2-0.1,1.7-0.1h3.6v1.1H290.4z"/>
		<g>
			<path class="st3" d="M123.6,75.3h-1.7c-5.8,0-10.7,4.1-11.9,9.6c-0.2,0.8-0.3,1.7-0.3,2.6v18.3c0,0.9,0.1,1.7,0.3,2.6
				c1.2,5.5,6.1,9.6,11.9,9.6c10.6,0,21.2,0,31.8,0c6.7,0,12.2-5.5,12.2-12.2v-4.4h-13.9v1.6c0,2.9-2.4,5.3-5.3,5.3h-17.6
				c-2.9,0-5.3-2.4-5.3-5.3c0-4,0-8.8,0-12.8c0-2.9,2.4-5.3,5.3-5.3h17.6c2.9,0,5.3,2.4,5.3,5.3v1.6h13.9v-4.4
				c0-6.7-5.5-12.2-12.2-12.2C143.6,75.3,133.6,75.3,123.6,75.3z"/>
			<path class="st0" d="M117.2,123.2h172.6c4.1,0,7.5,3.4,7.5,7.5l0,0c0,4.1-3.4,7.5-7.5,7.5H117.2c-4.1,0-7.5-3.4-7.5-7.5l0,0
				C109.7,126.6,113.1,123.2,117.2,123.2z"/>
		</g>
		<path d="M118.2,134.7v-7h1.4v5.8h3.5v1.2H118.2z M140.3,134.7h-1.5l-0.6-1.6h-2.8l-0.6,1.6h-1.5l2.7-7.1h1.5L140.3,134.7z
			 M137.6,131.9l-1-2.6l-1,2.6H137.6z M150.7,134.7v-7.1h1.4l2.9,4.7v-4.7h1.3v7.1h-1.4L152,130v4.6H150.7z M167.5,127.6h2.6
			c0.6,0,1,0,1.3,0.1c0.4,0.1,0.8,0.3,1.1,0.7c0.3,0.3,0.5,0.7,0.7,1.1c0.2,0.5,0.2,1,0.2,1.7c0,0.6-0.1,1.1-0.2,1.5
			c-0.2,0.5-0.4,0.9-0.8,1.2c-0.2,0.2-0.6,0.4-1,0.6c-0.3,0.1-0.7,0.2-1.3,0.2h-2.7V127.6z M169,128.8v4.7h1.1c0.4,0,0.7,0,0.9-0.1
			c0.2-0.1,0.4-0.2,0.6-0.3c0.2-0.1,0.3-0.4,0.4-0.7c0.1-0.3,0.1-0.7,0.1-1.3s0-1-0.1-1.3c-0.1-0.3-0.2-0.5-0.4-0.7
			c-0.2-0.2-0.4-0.3-0.7-0.3c-0.2,0-0.6-0.1-1.2-0.1H169z M184.3,134.7v-7.1h1.4v7.1H184.3z M196.8,134.7v-7.1h1.4l2.9,4.7v-4.7h1.3
			v7.1H201l-2.9-4.6v4.6H196.8z M216.9,132.1v-1.2h3.1v2.8c-0.3,0.3-0.7,0.5-1.3,0.8c-0.6,0.2-1.1,0.3-1.7,0.3
			c-0.7,0-1.4-0.2-1.9-0.5s-1-0.8-1.2-1.3c-0.3-0.6-0.4-1.2-0.4-1.9c0-0.7,0.2-1.4,0.5-2c0.3-0.6,0.8-1,1.4-1.3
			c0.5-0.2,1-0.4,1.7-0.4c0.9,0,1.6,0.2,2.1,0.6c0.5,0.4,0.8,0.9,0.9,1.5l-1.4,0.3c-0.1-0.3-0.3-0.6-0.6-0.8c-0.3-0.2-0.6-0.3-1-0.3
			c-0.6,0-1.1,0.2-1.5,0.6c-0.4,0.4-0.5,1-0.5,1.8c0,0.8,0.2,1.5,0.6,1.9c0.4,0.4,0.9,0.6,1.5,0.6c0.3,0,0.6-0.1,0.9-0.2
			c0.3-0.1,0.6-0.3,0.8-0.4v-0.9H216.9z M233.7,134.7v-7.1h2.3c0.9,0,1.4,0,1.7,0.1c0.4,0.1,0.7,0.3,1,0.7c0.3,0.4,0.4,0.8,0.4,1.4
			c0,0.4-0.1,0.8-0.2,1.1c-0.2,0.3-0.4,0.5-0.6,0.7c-0.2,0.2-0.5,0.3-0.7,0.3c-0.3,0.1-0.8,0.1-1.5,0.1h-0.9v2.7H233.7z
			 M235.2,128.8v2h0.8c0.6,0,0.9,0,1.1-0.1c0.2-0.1,0.3-0.2,0.4-0.3c0.1-0.2,0.2-0.3,0.2-0.6c0-0.3-0.1-0.5-0.2-0.6
			c-0.2-0.2-0.3-0.3-0.6-0.3c-0.2,0-0.5,0-1,0H235.2z M255.6,134.7h-1.5l-0.6-1.6h-2.8l-0.6,1.6h-1.5l2.7-7.1h1.5L255.6,134.7z
			 M253,131.9l-1-2.6l-1,2.6H253z M269.4,132.1v-1.2h3.1v2.8c-0.3,0.3-0.7,0.5-1.3,0.8s-1.1,0.3-1.7,0.3c-0.7,0-1.4-0.2-1.9-0.5
			c-0.5-0.3-1-0.8-1.2-1.3c-0.3-0.6-0.4-1.2-0.4-1.9c0-0.7,0.2-1.4,0.5-2c0.3-0.6,0.8-1,1.4-1.3c0.5-0.2,1-0.4,1.7-0.4
			c0.9,0,1.6,0.2,2.1,0.6c0.5,0.4,0.8,0.9,0.9,1.5l-1.4,0.3c-0.1-0.3-0.3-0.6-0.6-0.8c-0.3-0.2-0.6-0.3-1-0.3
			c-0.6,0-1.1,0.2-1.5,0.6c-0.4,0.4-0.5,1-0.5,1.8c0,0.8,0.2,1.5,0.6,1.9c0.4,0.4,0.9,0.6,1.5,0.6c0.3,0,0.6-0.1,0.9-0.2
			c0.3-0.1,0.6-0.3,0.8-0.4v-0.9H269.4z M283.5,134.7v-7.1h5.2v1.2h-3.8v1.6h3.5v1.2h-3.5v1.9h3.9v1.2H283.5z"/>
	</g>
</g>
</svg>
