<svg id="Слой_1" data-name="Слой 1" xmlns="http://www.w3.org/2000/svg" viewBox="0 0 1000 1000"><defs><style>.cls-1{fill:#f4faf6;stroke:#e9e9e9;stroke-miterlimit:10;stroke-width:5px;}.cls-2{fill:#00a046;}</style></defs><title>розеткаМонтажная область 1 копия 11</title><rect class="cls-1" x="1.17" y="1.88" width="1200.04" height="1000.19"/><path class="cls-2" d="M565.36,76.08H434.64c-10.88,0-19.8,9.2-19.8,20.42V358c0,11.22,8.92,20.42,19.8,20.42H565.36c10.88,0,19.8-9.2,19.8-20.42V96.5c0-11.22-8.92-20.42-19.8-20.42ZM479.1,90.8h41.8a2.47,2.47,0,0,1,0,4.93H479.1a2.47,2.47,0,0,1,0-4.93ZM500,368.21A10.21,10.21,0,1,1,509.9,358a10,10,0,0,1-9.9,10.22Zm71.37-27.59H428.62V108.47H571.37Zm0,0"/><text x="300" y="750" fill="black" font-size="80">Мобильная</text>
              <text x="350" y="850" fill="black" font-size="80">версия</text></svg>