<svg id="Слой_1" data-name="Слой 1" xmlns="http://www.w3.org/2000/svg" viewBox="0 0 1000 1000"><defs><style>.cls-1{fill:#00a046;}</style></defs><title>розеткаМонтажная область 1 копия 10</title><path class="cls-1" d="M172.88,572.17c16.1-6.34,26.65-19.25,26.65-33.4,0-17.07-15.39-30-37.29-36H80.46V605.4H113V573.14h21.39l0-.1.09.1h.12v.14l27.84,32.12H199.6v-4.87l-26.87-27.47Zm-20.6-15.63v.23H113v-27h39.32V530a13.39,13.39,0,0,1,0,26.54Z"/><path class="cls-1" d="M280.88,500c-40.42,0-73.18,27.65-73.18,56.31s32.76,51.88,73.18,51.88,73.18-23.23,73.18-51.88S321.3,500,280.88,500Zm-1,81c-19.87,0-36-11.59-36-25.88S260,527,279.91,527s36,13.79,36,28.09S299.78,581,279.91,581Z"/><polygon class="cls-1" points="408.16 578.23 467.61 518.78 467.61 502.86 354.06 502.86 354.06 529.88 413.58 529.88 354.06 589.4 354.06 605.34 467.61 605.34 467.61 578.23 408.16 578.23"/><path class="cls-1" d="M509,583.65V567.48h59.45V545.84H509V529.67h70.39v-27H476.62V605.49H579.41V583.65Z"/><polygon class="cls-1" points="633.26 529.7 633.26 605.44 660.37 605.44 660.37 529.7 703.36 529.7 703.36 502.75 590.06 502.75 590.06 529.7 633.26 529.7"/><polygon class="cls-1" points="788.01 547.29 833.03 502.96 833.03 502.67 790 502.67 751.99 540.68 749.56 540.68 749.56 502.67 714.22 502.67 714.22 605.52 752.27 605.52 752.27 573.06 757.74 567.59 767.71 567.59 790.73 605.52 833.03 605.52 833.03 605.42 788.01 547.29"/><path class="cls-1" d="M882,583.72h48.39l7.56,21.76h35.71L930.12,502.71l-48.22.09L838.71,605.48h36.1Zm16-53.86h10.82l11.06,37.85H887.49Z"/></svg>