<svg id="Слой_1" data-name="Слой 1" xmlns="http://www.w3.org/2000/svg" viewBox="0 0 1000 1000"><defs><style>.cls-1,.cls-2{fill:#00a046;}.cls-2{stroke:#000;stroke-miterlimit:10;stroke-width:5px;}.cls-3{fill:#221f1f;}</style></defs><title>розеткаМонтажная область 1</title><ellipse class="cls-1" cx="499.52" cy="499.5" rx="413.92" ry="414.52"/><ellipse class="cls-2" cx="291.1" cy="360.75" rx="119.11" ry="66.18" transform="translate(-116.11 582.24) rotate(-79.64)"/><path class="cls-3" d="M320.68,311.66c-8.93-1.64-18.28,5.38-25,17.23,4.05,2.52,6.89,8.41,6.89,15.27,0,9.16-5.06,16.59-11.3,16.59a8.26,8.26,0,0,1-4.6-1.47c-1.8,21.27,5.45,39,17.71,41.29,13.71,2.52,28.48-15.34,33-39.9S334.4,314.18,320.68,311.66Z"/><path class="cls-3" d="M183.36,520s128.75,45.46,247.7,26.4c42.6-6.82,84.88-16.58,125.75-30.52,53.87-18.38,110.89-43.05,160.9-70.33,35.14-19.17,67-44.71,67-44.69,4.48,8.25-11.19,52.08-14.08,60.77C759.54,495,744.37,527,731,559.63,702.88,628.06,675.22,693.69,635.64,756c-20.85,32.81-50.44,72.63-84.06,92.11-32.05,18.57-80.87,11.44-114.46.78-61.75-19.6-110.8-65.18-151.77-113.94-30.67-36.49-52.36-79.59-72-116.14C185.47,566.75,183.36,520,183.36,520Z"/><path class="cls-1" d="M611.26,767.11c-16.61,21.8-39.31,44.39-59.48,59-24.69,17.85-49.1,23.18-79.68,19.35s-87.86-38.28-87.86-38.28c47.45-65.12,127-104.35,210.17-104.35,20.55,0,35-.09,54.17,4.74C648.58,707.53,625.2,748.82,611.26,767.11Z"/><path class="cls-3" d="M398.94,444.91S413.08,432,418.12,427.6c13.56-11.73,27.56-19.93,42.38-30,30.34-20.71,61.09-39.71,98.24-43.51,15.12-1.56,35-.6,48.35,6.7,26.32,14.39,13.68,78.2,13.68,78.2s30.81-44.28,30.75-74.23c0-10.76-1.44-21.67-5.66-31.57-13.61-31.91-47.5-32.49-76.23-23C499.87,333.35,435.32,379.61,398.94,444.91Z"/><path class="cls-3" d="M693.48,283.5c-.68-.67,0-6.95-.12-8.14-3-40.5-31.36-92-75.12-98.91-18.68-3-39.15,1.33-55.55,10.77-20.08,11.56-36.52,23.07-52.93,39.31-7.28,7.2-14.27,16.51-21,24.22-2.27,2.6-8.31,13.33-8.31,13.33s45.9-22.58,69.87-29.41c15.93-4.55,31.8-7.62,48.17-5.07C620,233,639,242.12,656.86,254.12,669.83,262.84,682.39,272.44,693.48,283.5Z"/><path class="cls-3" d="M266.44,156.91c2.34-1.17,7.47-.43,10-.54,7.36-.33,14.42-2,21.78-1.91,15.26.1,28.66-1.05,43.12,5,13.39,5.63,27.92,16.21,37,27.13,4.57,5.52,7.81,10.32,12.3,15.89,1.73,2.15,8.17,11,8.32,13.89-.94-18.64-.56-38.82-5.15-57.17a124.81,124.81,0,0,0-28.55-53.12s-20.73,7.62-44.09,19.23C293.71,139,266.45,156.9,266.44,156.91Z"/></svg>