<svg id="Слой_1" data-name="Слой 1" xmlns="http://www.w3.org/2000/svg" viewBox="0 0 1000 1000"><defs><style>.cls-1{fill:#a6a5a5;}</style></defs><title>розеткаМонтажная область 1 копия 9</title><circle class="cls-1" cx="360.55" cy="847.01" r="78.69"/><circle class="cls-1" cx="797.7" cy="847.01" r="78.69"/><path class="cls-1" d="M939.1,275a162,162,0,0,0-13.27-15.71c-35.08-36.51-79.32-29.13-125.05-28.8l-129.62.93-285.61,2.06-83.08.59a39.44,39.44,0,0,1-34.13-19.16l-50.68-84.46a44.79,44.79,0,0,0-38.42-21.75H60.6A27.32,27.32,0,0,0,33.28,136v20.68A27.32,27.32,0,0,0,60.6,184H140a26.92,26.92,0,0,1,24.52,15.8L367.62,694.16a44.23,44.23,0,0,0,40.92,27.43H548.18a44.31,44.31,0,0,0,7-.55l225.31-35.9a78.91,78.91,0,0,0,58.15-42.63L899,521.68c27.25-54.51,77.38-123.22,66.5-186.23C961.76,313.56,952.32,292.86,939.1,275Zm-35.28,110.8c-5,76.75-69.64,153.67-104.42,220.31-9.28,17.8-27,30.22-47.47,33.35L568,667.51a38.85,38.85,0,0,1-5.7.43h-114c-14.65,0-27.85-8.48-33.41-21.46Q407.46,629.22,400,612c-26.6-62.05-57.73-122.17-81.35-185.48-2.72-7.3-41.14-142.7-23.75-142.7,102.17,0,204.32,1.24,306.49,1q78-.23,155.94-.83c42.88-.34,83.69-8.37,116.51,25.64C888.83,325,900,344.66,903.07,366A94.65,94.65,0,0,1,903.82,385.76Z"/></svg>