<svg id="Слой_1" data-name="Слой 1" xmlns="http://www.w3.org/2000/svg" viewBox="0 0 1000 1000"><defs><style>.cls-1{fill:#a6a5a5;}</style></defs><title>розеткаМонтажная область 1 копия 6</title><path class="cls-1" d="M822.55,168.07H592.35C578.8,127.68,541.08,98.4,496.13,98.4s-82.67,29.28-96.22,69.67H169.7a20.64,20.64,0,0,0-20.64,20.64v23.22a20.64,20.64,0,0,0,20.64,20.65H399.91c13.55,40.38,51.27,69.67,96.22,69.67S578.8,273,592.35,232.58h230.2a20.64,20.64,0,0,0,20.65-20.65V188.71A20.64,20.64,0,0,0,822.55,168.07Z"/><path class="cls-1" d="M440,605.13c-9.91-28.7-25.84-51.6-29.31-56L260,314.06c-32.63,52.92-64.33,106.4-97.28,159.12-27.82,44.52-69.58,85.57-85.32,137a190.63,190.63,0,0,0-8.35,55.88C69.07,771.56,154.56,857,260,857s191-85.48,191-190.95C451,658.8,448.21,628.89,440,605.13ZM176.49,533.28c20.11-30.75,39.09-63.29,58.08-94.08L260,397.93,376.08,579a157.2,157.2,0,0,1,12.42,20H131.21C144.09,575.89,162.06,555.33,176.49,533.28ZM260,816.18A147.09,147.09,0,0,1,112.93,669.1c0-1.46.28-2.85.33-4.3H406.89c.13,1.8.21,3.36.21,4.29A147.09,147.09,0,0,1,260,816.18Z"/><path class="cls-1" d="M920,593.33c-9.92-28.71-25.85-51.6-29.31-56.05L740,302.25c-32.63,52.92-64.32,106.41-97.27,159.13-27.83,44.52-69.59,85.57-85.33,137A191,191,0,0,0,549,654.29c0,105.46,85.49,191,191,191s190.95-85.49,190.95-191C930.93,647,928.17,617.09,920,593.33ZM656.45,521.48c20.12-30.75,39.09-63.29,58.08-94.08L740,386.13,856,567.16a155.63,155.63,0,0,1,12.42,20H611.17C624.05,564.08,642,543.53,656.45,521.48ZM740,804.38A147.09,147.09,0,0,1,592.9,657.3c0-1.46.28-2.85.32-4.3H886.85c.13,1.8.22,3.36.22,4.29A147.1,147.1,0,0,1,740,804.38Z"/></svg>