<svg id="Слой_1" data-name="Слой 1" xmlns="http://www.w3.org/2000/svg" viewBox="0 0 1000 1000"><defs><style>.cls-1{fill:#f4faf6;stroke:#e9e9e9;stroke-width:5px;}.cls-1,.cls-3,.cls-4{stroke-miterlimit:10;}.cls-2,.cls-3,.cls-4{fill:none;}.cls-3,.cls-4{stroke:#00a046;}.cls-3{stroke-width:21px;}.cls-4{stroke-width:12px;}</style></defs><title>розеткаМонтажная область 1 копия 7</title><rect class="cls-1" x="1.17" y="1.88" width="1200.04" height="900"/><path class="cls-2" d="M836.47,872c1.95,6.29,5.09,16.58,3.71,26-1.44,9.78-7.43,18.57-7.43,18.57"/><path class="cls-3" d="M578.25,349.59c-21-7-39.55,11.45-58.89,15.28-18,3.56-38.4.86-55.89-4-36.21-10.13-68.88-34.48-86.44-68-28.73-54.94-14.19-128.91,33.11-169s122.56-42.32,172.23-5.21,71.16,113.94,42.36,170A36.13,36.13,0,0,0,622.14,315l15.54,54.42Z"/><circle class="cls-4" cx="440.08" cy="230.79" r="15.43"/><circle class="cls-4" cx="497.76" cy="230.79" r="15.43"/><circle class="cls-4" cx="559.92" cy="230.79" r="15.43"/><text x="200" y="750" fill="black" font-size="80">СМС Рассылка</text></svg>