<svg id="Слой_1" data-name="Слой 1" xmlns="http://www.w3.org/2000/svg" viewBox="0 0 1000 1000"><defs><style>.cls-1{fill:#f4faf6;stroke:#e9e9e9;stroke-miterlimit:10;stroke-width:5px;}.cls-2{fill:#00a046;}</style></defs><title>розеткаМонтажная область 1 копия 4</title><rect class="cls-1" x="1.17" y="1.88" width="1500.04" height="1000.19"/><rect class="cls-2" x="611.94" y="179.14" width="24.77" height="148.39"/><rect class="cls-2" x="537.81" y="215.62" width="24.77" height="111.91"/><rect class="cls-2" x="463.69" y="240.08" width="24.77" height="87.45"/><rect class="cls-2" x="389.56" y="266.77" width="24.77" height="60.77"/><rect class="cls-2" x="364.89" y="351.92" width="296.6" height="25.02"/><polygon class="cls-2" points="566.33 95.35 589.46 118.48 536.65 167.28 536.91 167.56 448.86 167.56 448.86 167.59 448.85 167.58 369.16 222.57 384.43 245.1 462.07 191.53 559.57 191.53 559.57 191.01 612.79 141.81 634.9 163.92 650.84 81.64 566.33 95.35"/><text x="300" y="650" fill="black" font-size="80">Статистика</text>
<text x="350" y="750" fill="black" font-size="80">продаж,</text>
              <text x="250" y="850" fill="black" font-size="80">прибыли и тд.</text></svg>