<svg id="Слой_1" data-name="Слой 1" xmlns="http://www.w3.org/2000/svg" viewBox="0 0 1000 1000"><defs><style>.cls-1{fill:#a6a5a5;}</style></defs><title>розеткаМонтажная область 1 копия 8</title><path class="cls-1" d="M913.26,410.29c-2.29-59.4-23.36-101.76-29.35-113.21-12.31-23.49-34.73-66.31-83.86-92.24-32.3-17-62.42-19.53-79.66-21-15.79-1.31-46.68-3.55-83.85,8.39-17.93,5.76-46.46,15.3-71.28,41.92q-2,2.12-3.85,4.31t-3.53,4.29c-1.1,1.39-2.17,2.81-3.22,4.24s-2,2.76-2.92,4.16-1.79,2.69-2.64,4.06-1.61,2.6-2.38,3.92-1.43,2.5-2.12,3.77-1.27,2.37-1.88,3.57-1.11,2.23-1.65,3.35a17.18,17.18,0,0,1-1.12,2.07c-1.25,0-2.5,0-3.75-.07a.19.19,0,0,1-.12,0c-.16-.11-.23-.43-.3-.59l-.44-.93c-.29-.62-.59-1.24-.89-1.86-.57-1.16-1.15-2.31-1.75-3.46s-1.31-2.45-2-3.66-1.47-2.56-2.23-3.83-1.64-2.67-2.49-4-1.82-2.75-2.77-4.11-2-2.81-3.05-4.2-2.21-2.86-3.35-4.26-2.42-2.89-3.67-4.3c-.73-.82-1.47-1.63-2.22-2.44-24.81-26.62-53.34-36.16-71.27-41.92-37.17-11.94-68.06-9.7-83.86-8.39-17.24,1.43-47.35,3.92-79.66,21C227,230.77,204.6,273.59,192.3,297.08c-6,11.45-27.07,53.81-29.35,113.21-.61,15.77-1.24,67.88,25.16,125.78,14.57,32,31.8,53.43,46.11,71.27,22.65,28.22,42.79,45.92,67.09,67.09a848.66,848.66,0,0,0,100.62,75.46q9.38,6,18.91,11.66,10.4,6.21,21,12.12Q453.18,780,464.75,786q12.35,6.38,24.89,12.34,13.31,6.31,26.83,12.16c6.12,2.64,12.21,6,18.95,6.57a28.85,28.85,0,0,0,8.19-.41,44.26,44.26,0,0,0,4.65-1.24c1.31-.42,2.41-1.07,3.67-1.6q7-2.94,13.92-6,13.3-5.88,26.39-12.21,12.33-6,24.45-12.35,11.35-6,22.5-12.3,10.35-5.87,20.53-12,7.32-4.44,14.55-9A848.47,848.47,0,0,0,774.9,674.43c24.3-21.17,44.43-38.87,67.08-67.09,14.32-17.84,31.54-39.29,46.12-71.27A282.74,282.74,0,0,0,913.26,410.29ZM841.77,547.63c-12.65,27-27.59,45.11-40,60.17-19.65,23.82-37.12,38.77-58.2,56.63a736.41,736.41,0,0,1-87.31,63.72Q650,732,643.62,735.77q-8.82,5.22-17.81,10.17-9.67,5.34-19.52,10.38-10.51,5.38-21.21,10.43-11.36,5.34-22.9,10.31-6,2.58-12.08,5.05c-1.09.45-2.05,1-3.19,1.35a36.67,36.67,0,0,1-4,1,25.69,25.69,0,0,1-7.11.35c-5.84-.52-11.13-3.32-16.44-5.55q-11.73-4.93-23.28-10.26-10.87-5-21.59-10.42-10-5.05-19.9-10.41-9.18-5-18.2-10.23-8.26-4.82-16.4-9.84a734.71,734.71,0,0,1-87.31-63.72c-21.09-17.86-38.55-32.81-58.2-56.63-12.43-15.06-27.37-33.17-40-60.17A233.14,233.14,0,0,1,212.6,441.44c2-50.15,20.27-85.91,25.47-95.57,10.67-19.84,30.13-56,72.75-77.87,28-14.4,54.16-16.5,69.12-17.7,13.71-1.1,40.51-3,72.76,7.08,15.56,4.86,40.31,12.92,61.84,35.39.65.68,1.29,1.37,1.92,2.06q1.63,1.79,3.18,3.63t2.91,3.6q1.37,1.76,2.65,3.55c.82,1.14,1.62,2.3,2.4,3.47s1.46,2.23,2.16,3.36,1.31,2.15,1.93,3.24,1.17,2.05,1.72,3.09,1,1.94,1.52,2.91l.78,1.58.37.78c.07.14.13.41.27.5a.21.21,0,0,0,.1,0c1.09,0,2.17.06,3.25.05a14.35,14.35,0,0,0,1-1.74c.46-.95.94-1.9,1.43-2.83s1.07-2,1.63-3,1.21-2.13,1.84-3.18,1.36-2.22,2.06-3.31,1.51-2.3,2.29-3.42,1.67-2.36,2.54-3.52,1.84-2.4,2.8-3.58,2-2.43,3.06-3.62,2.2-2.45,3.34-3.64c21.53-22.47,46.28-30.53,61.84-35.39,32.25-10.08,59-8.18,72.76-7.08,15,1.2,41.08,3.3,69.11,17.7,42.62,21.88,62.08,58,72.76,77.87,5.2,9.66,23.48,45.42,25.46,95.57A232.85,232.85,0,0,1,841.77,547.63Z"/></svg>