<svg id="Слой_1" data-name="Слой 1" xmlns="http://www.w3.org/2000/svg" viewBox="0 0 1000 1000"><defs><style>.cls-1,.cls-3{fill:#f4faf6;}.cls-1{stroke:#e9e9e9;stroke-miterlimit:10;stroke-width:5px;}.cls-2{fill:#00a046;}</style></defs><title>розеткаМонтажная область 1 копия 3</title><rect class="cls-1" x="1.17" y="1.88" width="1200.04" height="900.04"/><path class="cls-2" d="M619.16,187.68H487.92A25.53,25.53,0,0,0,462.4,213.2v91.87a25.52,25.52,0,0,0,25.52,25.52h78.95l28.68,45.78a.55.55,0,0,0,1-.29V330.59h22.6a25.51,25.51,0,0,0,25.52-25.52V213.2A25.52,25.52,0,0,0,619.16,187.68Zm2.19,95.52a25.53,25.53,0,0,1-25.52,25.52H513.44a25.53,25.53,0,0,1-25.52-25.52V237.26a25.53,25.53,0,0,1,25.52-25.52h82.39a25.53,25.53,0,0,1,25.52,25.52Z"/><rect class="cls-3" x="372.72" y="93.63" width="204.15" height="171.34" rx="1.56"/><path class="cls-2" d="M549.27,79.77H400.32A47.29,47.29,0,0,0,353,127.06V236.64a47.28,47.28,0,0,0,47.28,47.29h2.3V332a1.79,1.79,0,0,0,2.89,1.41l63.9-49.52h79.87a47.28,47.28,0,0,0,47.28-47.29V127.06A47.29,47.29,0,0,0,549.27,79.77Zm22.5,139a40.36,40.36,0,0,1-40.36,40.36H418.18a40.35,40.35,0,0,1-40.35-40.36v-77.5a40.35,40.35,0,0,1,40.35-40.36H531.41a40.36,40.36,0,0,1,40.36,40.36Z"/><rect class="cls-2" x="414.28" y="138.83" width="121.03" height="24.06"/><rect class="cls-2" x="414.28" y="187.68" width="121.03" height="24.06"/><text x="200" y="650" fill="black" font-size="80">Обработка заявок</text><text x="250" y="750" fill="black" font-size="80">из сообщений</text></svg>