<svg id="Слой_1" data-name="Слой 1" xmlns="http://www.w3.org/2000/svg" viewBox="0 0 1000 1000"><defs><style>.cls-1{fill:#f4faf6;stroke:#e9e9e9;stroke-width:5px;}.cls-1,.cls-2{stroke-miterlimit:10;}.cls-2{fill:#00a046;stroke:#00a046;stroke-width:0.25px;}</style></defs><title>розеткаМонтажная область 1 копия 2</title><rect class="cls-1" x="1.17" y="1.88" width="1200.04" height="1000.19"/><path class="cls-2" d="M334.24,118.81V234.54a4.64,4.64,0,0,0,4.57,4.71H450.49a4.64,4.64,0,0,0,4.57-4.71V118.81a4.64,4.64,0,0,0-4.57-4.71H338.81A4.64,4.64,0,0,0,334.24,118.81Zm92,95.3H363.08a4.64,4.64,0,0,1-4.57-4.71V144a4.64,4.64,0,0,1,4.57-4.71h63.14a4.64,4.64,0,0,1,4.57,4.71V209.4A4.64,4.64,0,0,1,426.22,214.11Z"/><path class="cls-2" d="M334.24,258V370.19a6.39,6.39,0,0,0,6.3,6.49H448.76a6.39,6.39,0,0,0,6.3-6.49V258a6.39,6.39,0,0,0-6.3-6.48H340.54A6.39,6.39,0,0,0,334.24,258Zm90.25,93.52H364.81a6.39,6.39,0,0,1-6.3-6.49V283.16a6.39,6.39,0,0,1,6.3-6.48h59.68a6.39,6.39,0,0,1,6.3,6.48v61.89A6.39,6.39,0,0,1,424.49,351.54Z"/><path class="cls-2" d="M466.64,257.36V370.85a5.74,5.74,0,0,0,5.66,5.83H581.81a5.75,5.75,0,0,0,5.66-5.83V257.36a5.75,5.75,0,0,0-5.66-5.82H472.3A5.74,5.74,0,0,0,466.64,257.36Zm90.89,94.18h-61a5.75,5.75,0,0,1-5.66-5.83V282.5a5.75,5.75,0,0,1,5.66-5.82h61a5.74,5.74,0,0,1,5.66,5.82v63.21A5.74,5.74,0,0,1,557.53,351.54Z"/><path class="cls-2" d="M456.29,157.91l69.72,92a4,4,0,0,0,5.75.73l88.82-71.32a4.31,4.31,0,0,0,.71-5.92l-69.72-92a4,4,0,0,0-5.75-.73L457,152A4.3,4.3,0,0,0,456.29,157.91Zm130.13,17-50.54,40.58a4,4,0,0,1-5.74-.73l-39.69-52.38a4.31,4.31,0,0,1,.71-5.92l50.54-40.58a4,4,0,0,1,5.75.73L587.13,169A4.31,4.31,0,0,1,586.42,174.89Z"/><text x="250" y="750" fill="black" font-size="80">Личный склад</text></svg>